Coordinates
version=1
nRows=11
nColumns=63
inDegrees=yes

Units are S.I. units (second, meters, Newtons, ...)
If the header above contains a line with 'inDegrees', this indicates whether rotational values are in degrees (yes) or radians (no).

endheader
time	pelvis_tilt	pelvis_list	pelvis_rotation	pelvis_tx	pelvis_ty	pelvis_tz	hip_flexion_r	hip_adduction_r	hip_rotation_r	knee_angle_r	knee_angle_r_beta	ankle_angle_r	subtalar_angle_r	mtp_angle_r	hip_flexion_l	hip_adduction_l	hip_rotation_l	knee_angle_l	knee_angle_l_beta	ankle_angle_l	subtalar_angle_l	mtp_angle_l	L5_S1_Flex_Ext	L5_S1_Lat_Bending	L5_S1_axial_rotation	L4_L5_Flex_Ext	L4_L5_Lat_Bending	L4_L5_axial_rotation	L3_L4_Flex_Ext	L3_L4_Lat_Bending	L3_L4_axial_rotation	L2_L3_Flex_Ext	L2_L3_Lat_Bending	L2_L3_axial_rotation	L1_L2_Flex_Ext	L1_L2_Lat_Bending	L1_L2_axial_rotation	L1_T12_Flex_Ext	L1_T12_Lat_Bending	L1_T12_axial_rotation	Abs_r3	Abs_r2	Abs_r1	Abs_t1	Abs_t2	neck_flexion	neck_bending	neck_rotation	arm_flex_r	arm_add_r	arm_rot_r	elbow_flex_r	pro_sup_r	wrist_flex_r	wrist_dev_r	arm_flex_l	arm_add_l	arm_rot_l	elbow_flex_l	pro_sup_l	wrist_flex_l	wrist_dev_l
      3.25000000	     25.39329831	      0.54867964	    -90.35566278	      0.41179443	      1.06162617	      0.06723181	     16.58581938	     -4.10561484	    -16.75998001	     25.35789664	      0.44257879	    -11.06301306	    -18.49945871	      0.00000000	     15.97904191	      3.41334225	     13.55001567	     23.56541787	      0.41129413	    -11.56491608	      8.09765688	      0.00000000	     -0.09817240	      0.18398416	     -0.19089759	     -0.18231596	      0.24469893	     -0.20282869	     -0.16128743	      0.44733908	     -0.20282869	     -0.11220123	      0.44733908	     -0.16703540	     -0.09116289	      0.37518049	     -0.15510430	     -0.05609571	      0.28499146	     -0.14317320	     -0.70123563	      2.08126557	     -1.06171515	      0.00000000	      0.00000000	      0.00000000	      0.00000000	     -0.00000000	    149.25162860	    -45.27693083	     51.75289292	     65.11910329	     74.91509169	      0.00000000	      5.00000014	    -22.23602087	   -158.81025116	   -121.03271540	     52.35364944	     72.87576512	      0.00000000	      5.00000014
      3.26666670	     25.29079104	      0.43317854	    -89.99071089	      0.40803527	      1.07317044	      0.06865063	     15.99354959	     -4.02765511	    -16.76158967	     24.66259790	      0.43044354	    -12.00263635	    -18.59667937	      0.00000000	     15.41949523	      2.94920115	     12.17921137	     22.59022409	      0.39427379	    -12.40012999	      9.91927680	      0.00000000	     -0.12398398	      0.20901285	     -0.29647141	     -0.23025065	      0.27798709	     -0.31500087	     -0.20369328	      0.50819385	     -0.31500087	     -0.14170129	      0.50819385	     -0.25941248	     -0.11513152	      0.42621901	     -0.24088302	     -0.07084445	      0.32376091	     -0.22235356	     -0.88560517	      2.36439519	     -1.64888504	      0.00000000	      0.00000000	      0.00000000	      0.00000000	     -0.00000000	    149.70986120	    -44.57857012	     51.90680929	     64.85498628	     74.74831968	      0.00000000	      5.00000014	    -21.53369805	   -159.36806318	   -120.86687485	     51.61701753	     72.74720845	      0.00000000	      5.00000014
      3.28333330	     25.10068572	      0.26806040	    -89.76895200	      0.40589484	      1.08032125	      0.06943597	     15.62152895	     -3.88511168	    -16.70687779	     24.42040647	      0.42621650	    -12.52988495	    -18.82620679	      0.00000000	     15.11754822	      2.44852945	     10.75357317	     22.24933824	      0.38832421	    -12.45765207	     11.84978058	      0.00000000	     -0.15295005	      0.23259576	     -0.35908784	     -0.28404354	      0.30935235	     -0.38153083	     -0.25128164	      0.56553332	     -0.38153083	     -0.17480661	      0.56553332	     -0.31420186	     -0.14202942	      0.47430926	     -0.29175887	     -0.08739566	      0.36029082	     -0.26931588	     -1.09250693	      2.63116970	     -1.99713885	      0.00000000	      0.00000000	      0.00000000	      0.00000000	     -0.00000000	    149.94759266	    -44.20687444	     52.36712058	     64.60425238	     74.12226424	      0.00000000	      5.00000014	    -20.91175124	   -160.10574056	   -119.71027215	     50.78540634	     72.39612225	      0.00000000	      5.00000014
      3.30000000	     25.00365587	      0.20608192	    -89.61923919	      0.40569007	      1.08318744	      0.07009333	     15.50356252	     -3.90717377	    -16.68599019	     24.44927284	      0.42672031	    -12.70896336	    -18.96546231	      0.00000000	     14.92690947	      2.19173592	      9.79084576	     21.95304131	      0.38315285	    -12.56192312	     13.00386658	      0.00000000	     -0.17267156	      0.23891817	     -0.37306335	     -0.32066836	      0.31776116	     -0.39637981	     -0.28368211	      0.58090563	     -0.39637981	     -0.19734633	      0.58090563	     -0.32643043	     -0.16034281	      0.48720192	     -0.30311397	     -0.09866453	      0.37008424	     -0.27979752	     -1.23337569	      2.70269008	     -2.07486645	      0.00000000	      0.00000000	      0.00000000	      0.00000000	     -0.00000000	    150.23497607	    -44.73053916	     53.38866294	     65.70591077	     68.08772893	      0.00000000	      5.00000014	    -20.54380848	   -160.56015774	   -118.26597559	     51.51673064	     68.29184950	      0.00000000	      5.00000014
      3.31666670	     24.87915024	      0.09897397	    -89.55424457	      0.40722186	      1.08171519	      0.07050566	     15.46412235	     -3.92379264	    -16.67736929	     24.69963565	      0.43108997	    -12.54772429	    -19.06608107	      0.00000000	     14.79766456	      1.96430817	      8.94019055	     21.89792372	      0.38219087	    -12.33442698	     14.11819456	      0.00000000	     -0.17538095	      0.24396396	     -0.34164365	     -0.32569996	      0.32447207	     -0.36299638	     -0.28813336	      0.59317398	     -0.36299638	     -0.20044289	      0.59317398	     -0.29893820	     -0.16285875	      0.49749132	     -0.27758547	     -0.10021267	      0.37790018	     -0.25623274	     -1.25272857	      2.75976915	     -1.90011950	      0.00000000	      0.00000000	      0.00000000	      0.00000000	     -0.00000000	    149.92320236	    -45.43841521	     53.42435924	     66.77431518	     68.05510953	      0.00000000	      5.00000014	    -21.15382738	   -161.00369681	   -118.30787639	     53.07710024	     68.30456050	      0.00000000	      5.00000014
      3.33333330	     24.72262111	      0.01596790	    -89.61489851	      0.41062353	      1.07604868	      0.07067290	     15.58692901	     -3.92499561	    -16.57816101	     25.14306191	      0.43882921	    -12.18878826	    -19.18881053	      0.00000000	     14.74400710	      1.80863823	      8.38251282	     21.96492252	      0.38336022	    -12.07303052	     14.68783806	      0.00000000	     -0.16843683	      0.24604797	     -0.01293415	     -0.31280403	      0.32724379	     -0.01374254	     -0.27672486	      0.59824102	     -0.01374254	     -0.19250645	      0.59824102	     -0.01131739	     -0.15641044	      0.50174101	     -0.01050900	     -0.09624480	      0.38112830	     -0.00970062	     -1.20312740	      2.78334380	     -0.07193589	      0.00000000	      0.00000000	      0.00000000	      0.00000000	     -0.00000000	    151.75081737	    -47.85973398	     56.10329265	     69.29943808	     67.16056162	      0.00000000	      5.00000014	    -23.90060900	   -162.10848237	   -122.33250204	     55.80893962	     68.69865982	      0.00000000	      5.00000014
      3.35000000	     24.63038183	     -0.13857504	    -89.71987844	      0.41561608	      1.06641081	      0.07055333	     15.75646141	     -4.00614261	    -16.42435099	     25.79587917	      0.45022302	    -11.55232246	    -19.26556097	      0.00000000	     14.72164046	      1.77766310	      7.95471368	     22.23956010	      0.38815355	    -11.60474691	     15.17137618	      0.00000000	     -0.14723356	      0.24099218	      0.23638529	     -0.27342744	      0.32051960	      0.25115937	     -0.24189002	      0.58594839	      0.25115937	     -0.16827324	      0.58594839	      0.20683713	     -0.13672108	      0.49143126	      0.19206305	     -0.08412926	      0.37329689	      0.17728897	     -1.05167460	      2.72615175	      1.31470405	      0.00000000	      0.00000000	      0.00000000	      0.00000000	     -0.00000000	    151.95099239	    -49.83673726	     56.72831301	     71.46453719	     66.84192026	      0.00000000	      5.00000014	    -26.96523588	   -162.93217863	   -125.60102447	     59.47298181	     69.09672189	      0.00000000	      5.00000014
      3.36666670	     24.54603485	     -0.25255146	    -89.88923637	      0.42205009	      1.05318712	      0.07029927	     16.07170128	     -4.11467502	    -16.31003098	     26.62440873	      0.46468359	    -10.61898791	    -19.33279263	      0.00000000	     14.79318178	      1.81931917	      7.74048268	     22.63215864	      0.39500569	    -10.91168849	     15.39237237	      0.00000000	     -0.11370965	      0.22676482	      0.54910512	     -0.21117019	      0.30159721	      0.58342419	     -0.18681359	      0.55135599	      0.58342419	     -0.12995876	      0.55135599	      0.48046698	     -0.10559078	      0.46241883	      0.44614791	     -0.06497369	      0.35125871	      0.41182884	     -0.81221667	      2.56520903	      3.05395796	      0.00000000	      0.00000000	      0.00000000	      0.00000000	     -0.00000000	    152.27034492	    -52.57126310	     57.54337040	     74.42410030	     66.85853190	      0.00000000	      5.00000014	    -30.56772238	   -163.94192548	   -128.74688052	     64.08346572	     69.54111049	      0.00000000	      5.00000014
      3.38333330	     24.44748465	     -0.31436105	    -90.16683020	      0.42997795	      1.03711284	      0.06986342	     16.56132743	     -4.21044466	    -16.06723542	     27.62726423	      0.48218672	     -9.48587261	    -19.37155045	      0.00000000	     15.02890250	      1.92994094	      7.71054695	     23.24722898	      0.40574069	    -10.07707561	     15.34751836	      0.00000000	     -0.06505943	      0.19687394	      1.56680826	     -0.12082186	      0.26184234	      1.66473378	     -0.10688613	      0.47867929	      1.66473378	     -0.07435642	      0.47867929	      1.37095723	     -0.06041418	      0.40146534	      1.27303171	     -0.03717496	      0.30495773	      1.17510620	     -0.46471297	      2.22707737	      8.71411750	      0.00000000	      0.00000000	      0.00000000	      0.00000000	     -0.00000000	    162.90287932	    -58.21605575	     70.74993018	     77.80837550	     64.59968734	      0.00000000	      5.00000014	    -37.80089953	   -168.52267280	   -137.97278309	     68.66798082	     75.19357274	      0.00000000	      5.00000014
      3.40000000	     24.67743211	     -0.46254625	    -90.51357731	      0.43839410	      1.01863155	      0.06903326	     17.18930050	     -4.62823703	    -15.64534682	     29.01642192	      0.50643210	     -7.97663048	    -19.41629879	      0.00000000	     15.27136090	      2.41020912	      7.76497302	     24.02464622	      0.41930918	     -9.13260934	     15.06152766	      0.00000000	      0.00635482	      0.13334946	      1.94163586	      0.01180154	      0.17735479	      2.06298810	      0.01044034	      0.32422589	      2.06298810	      0.00726293	      0.32422589	      1.69893138	      0.00590109	      0.27192623	      1.57757914	      0.00363115	      0.20655832	      1.45622690	      0.04539186	      1.50847581	     10.79879617	      0.00000000	      0.00000000	      0.00000000	      0.00000000	     -0.00000000	    162.69147241	    -61.98219961	     70.77910403	     81.23707422	     64.81930483	      0.00000000	      5.00000014	    -43.19518756	   -170.47877883	   -140.40871162	     75.09790101	     75.26345824	      0.00000000	      5.00000014
      3.41666670	     24.60119473	     -0.44467632	    -90.84988751	      0.44825381	      0.99913685	      0.06823799	     17.99354614	     -4.78725003	    -15.42506194	     30.42924093	      0.53109044	     -6.34224056	    -19.42301966	      0.00000000	     15.86434620	      2.73102700	      8.26288232	     25.19194847	      0.43968245	     -7.83143946	     14.40137451	      0.00000000	      0.06065619	      0.12710475	      3.45550209	      0.11264461	      0.16904932	      3.67147097	      0.09965205	      0.30904249	      3.67147097	      0.06932396	      0.30904249	      3.02356433	      0.05632534	      0.25919200	      2.80759545	      0.03465895	      0.19688526	      2.59162657	      0.43326108	      1.43783434	     19.21846599	      0.00000000	      0.00000000	      0.00000000	      0.00000000	     -0.00000000	    190.48437736	    -65.96497001	    100.81917002	     85.39231206	     63.49560595	      0.00000000	      5.00000014	    -52.98614030	   -178.46448971	   -150.59210131	     81.42130623	     79.72404114	      0.00000000	      5.00000014
